<?xml version="1.0" encoding="UTF-8"?>
<!-- Generator: Adobe Illustrator 14.0.0, SVG Export Plug-In . SVG Version: 6.00 Build 43363)  -->
<!DOCTYPE svg PUBLIC "-//W3C//DTD SVG 1.1//EN" "http://www.w3.org/Graphics/SVG/1.1/DTD/svg11.dtd">
<svg version="1.1" id="Layer_1" xmlns="http://www.w3.org/2000/svg" xmlns:xlink="http://www.w3.org/1999/xlink" x="0px" y="0px" width="182.244px" height="60px" viewBox="0 0 182.244 60" enable-background="new 0 0 182.244 60" xml:space="preserve">
<g>
	<path fill-rule="evenodd" clip-rule="evenodd" fill="#045FAC" d="M10.961,43.428v-7.482h8.584c3.769,0,5.509,1.451,5.509,3.654   v0.117c0,2.377-1.973,3.711-5.394,3.711H10.961L10.961,43.428z M10.961,28.059v-7.133h7.307c3.363,0,5.103,1.277,5.103,3.481v0.115   c0,2.377-1.913,3.537-5.335,3.537H10.961L10.961,28.059z M0,52.475h20.937c9.684,0,15.367-4.232,15.367-11.193v-0.115   c0-5.51-3.132-8.293-8.061-9.916c3.595-1.568,6.264-4.352,6.264-9.048v-0.116c0-2.784-0.986-4.93-2.61-6.554   c-2.378-2.376-5.974-3.653-11.077-3.653H0V52.475L0,52.475z"/>
	<path fill-rule="evenodd" clip-rule="evenodd" fill="#4BB2E5" d="M50.313,53.287c7.366,0,13.34-2.727,17.631-6.264V28.755H49.271   v8.235h8.003v4.93c-1.682,1.102-3.77,1.682-6.496,1.682c-6.438,0-11.019-4.697-11.019-11.25v-0.117   c0-6.205,4.523-11.135,10.381-11.135c4.001,0,6.901,1.393,9.801,3.828l6.611-7.946c-4.291-3.712-9.337-5.915-16.471-5.915   c-6.243,0-11.67,2.285-15.557,6.029c0.792,1.503,1.172,3.183,1.172,4.99v0.116c0,3.939-1.712,6.891-4.661,8.878   c4.022,1.922,6.459,5.016,6.459,10.086v0.115c0,2.127-0.488,4.184-1.602,6.008c-0.176,0.287-0.364,0.563-0.562,0.828   C39.206,51.391,44.413,53.287,50.313,53.287L50.313,53.287z"/>
	<polygon fill-rule="evenodd" clip-rule="evenodd" fill="#045FAC" points="74.456,0 76.122,0 76.122,60 74.456,60 74.456,0  "/>
	<path fill-rule="evenodd" clip-rule="evenodd" fill="#045FAC" d="M148.441,18.615h-2.775c-0.043-0.271-0.166-0.477-0.373-0.62   c-0.207-0.141-0.445-0.214-0.717-0.214c-0.313,0-0.576,0.082-0.789,0.246c-0.215,0.164-0.32,0.41-0.32,0.738l0,0l0,0   c0,0.012,0,0.021,0,0.021l0,0c-0.015,0.27,0.084,0.48,0.299,0.63c0.214,0.149,0.441,0.267,0.683,0.352   c0.114,0.029,0.226,0.058,0.331,0.085c0.107,0.029,0.203,0.059,0.289,0.086c0.953,0.284,1.807,0.658,2.563,1.121   c0.754,0.463,1.133,1.285,1.133,2.467c0,0.555-0.102,1.071-0.301,1.547c-0.199,0.477-0.498,0.908-0.896,1.291   c-0.314,0.287-0.68,0.527-1.1,0.727s-0.852,0.344-1.291,0.428c-0.115,0.016-0.229,0.029-0.344,0.043   c-0.111,0.015-0.227,0.021-0.34,0.021c-1.211,0-2.219-0.377-3.023-1.132c-0.803-0.755-1.227-1.735-1.27-2.946h2.904   c0.07,0.385,0.234,0.703,0.492,0.961c0.256,0.256,0.59,0.385,1.002,0.385c0.342,0,0.648-0.098,0.918-0.289   c0.271-0.191,0.406-0.473,0.406-0.843c0-0.356-0.131-0.63-0.395-0.823c-0.264-0.195-0.559-0.348-0.885-0.463   c-0.129-0.056-0.254-0.102-0.375-0.138s-0.238-0.075-0.354-0.118c-0.1-0.027-0.191-0.057-0.277-0.084   c-0.086-0.029-0.17-0.059-0.256-0.088c-0.156-0.055-0.307-0.113-0.447-0.17c-0.145-0.057-0.285-0.119-0.428-0.193   c-0.115-0.055-0.232-0.123-0.352-0.201c-0.121-0.08-0.246-0.18-0.375-0.291c-0.385-0.328-0.672-0.7-0.865-1.111   c-0.191-0.417-0.287-0.872-0.287-1.37c0-1.102,0.404-1.986,1.217-2.655c0.811-0.673,1.736-1.007,2.777-1.007   c0.98,0,1.863,0.349,2.646,1.049C148.051,16.758,148.441,17.612,148.441,18.615L148.441,18.615z M134.115,27.2V15.37h2.582v1.067   h0.043c0.314-0.483,0.668-0.844,1.066-1.078c0.4-0.234,0.891-0.352,1.475-0.352l0.215-0.022v2.755   c-0.1,0.015-0.201,0.024-0.301,0.033c-0.1,0.006-0.197,0.023-0.299,0.053c-0.199,0.041-0.398,0.103-0.598,0.182   c-0.199,0.078-0.377,0.182-0.533,0.309c-0.357,0.285-0.58,0.615-0.672,0.993c-0.094,0.376-0.139,0.78-0.139,1.206   c0,0.059,0,0.111,0,0.161s0,0.103,0,0.161V27.2H134.115L134.115,27.2z M122.902,20.025h6.514c-0.229-0.697-0.642-1.248-1.238-1.645   c-0.598-0.4-1.26-0.599-1.986-0.599c-0.027,0-0.057,0-0.086,0c-0.027,0-0.057,0-0.085,0c-0.683,0.044-1.323,0.264-1.923,0.667   C123.501,18.851,123.102,19.377,122.902,20.025L122.902,20.025z M132.127,22.545h-9.182c0.213,0.697,0.609,1.252,1.186,1.664   c0.576,0.414,1.221,0.621,1.932,0.621c0.543,0,1.051-0.094,1.527-0.277c0.477-0.186,0.852-0.434,1.121-0.748l3.14-0.023   c-0.356,1.07-1.079,1.969-2.168,2.703s-2.259,1.1-3.513,1.1c-1.723,0-3.193-0.602-4.408-1.805   c-1.219-1.203-1.826-2.666-1.826-4.389c0-1.75,0.605-3.252,1.814-4.505c1.211-1.251,2.697-1.878,4.463-1.878   c1.693,0,3.127,0.618,4.303,1.86c1.174,1.242,1.762,2.687,1.762,4.335c0,0.186-0.01,0.367-0.031,0.544   c-0.023,0.177-0.047,0.351-0.074,0.521c-0.016,0.057-0.027,0.105-0.033,0.148C132.131,22.459,132.127,22.502,132.127,22.545   L132.127,22.545z M109.193,31.15l2.179-5.061l-4.335-10.72h3.225l2.713,7.579l2.84-7.579h3.225l-6.791,15.78H109.193L109.193,31.15   z M102.938,15.37h2.84V27.2h-2.605v-1.26h-0.041c-0.301,0.583-0.715,1.003-1.24,1.26c-0.527,0.255-1.117,0.384-1.771,0.384   c-0.699,0-1.371-0.131-2.019-0.395s-1.222-0.673-1.72-1.229c-0.527-0.57-0.848-1.172-0.961-1.805s-0.17-1.326-0.17-2.082V15.37   h2.842v5.808c0,0.184,0.002,0.375,0.009,0.564c0.007,0.193,0.019,0.391,0.032,0.59c0.027,0.228,0.066,0.451,0.117,0.67   c0.049,0.223,0.117,0.426,0.202,0.609c0.2,0.385,0.478,0.684,0.833,0.896c0.357,0.215,0.756,0.322,1.197,0.322   c0.953,0,1.586-0.318,1.898-0.951c0.314-0.633,0.492-1.328,0.533-2.082c0.016-0.099,0.023-0.199,0.023-0.299   c0-0.099,0-0.199,0-0.299V15.37L102.938,15.37z M86.089,17.483h0.556c0.029,0.015,0.053,0.023,0.074,0.023s0.039,0,0.053,0   c0.115,0,0.234,0,0.363,0c0.127,0,0.256-0.008,0.385-0.023c0.199,0,0.395-0.018,0.588-0.053c0.191-0.035,0.365-0.088,0.521-0.161   c0.285-0.126,0.507-0.327,0.662-0.598c0.158-0.27,0.234-0.554,0.234-0.853c0-0.328-0.092-0.612-0.275-0.855   c-0.186-0.241-0.42-0.419-0.705-0.533c-0.113-0.057-0.242-0.097-0.385-0.117c-0.143-0.022-0.293-0.04-0.449-0.053   c-0.027,0-0.061,0-0.096,0s-0.074,0-0.117,0c-0.07,0-0.146,0-0.225,0s-0.152,0-0.223,0c-0.072,0.014-0.143,0.021-0.215,0.021   c-0.07,0-0.141,0-0.213,0h-0.534V17.483L86.089,17.483z M86.089,24.359h1.218c0.426,0.014,0.84-0.006,1.238-0.064   c0.398-0.057,0.789-0.213,1.176-0.469c0.27-0.186,0.465-0.406,0.586-0.662s0.182-0.549,0.182-0.877c0-0.383-0.09-0.703-0.268-0.961   c-0.178-0.254-0.438-0.477-0.779-0.662c-0.314-0.155-0.633-0.249-0.959-0.276c-0.33-0.029-0.664-0.043-1.006-0.043   c-0.014,0-0.031,0-0.053,0s-0.039,0-0.055,0h-1.28V24.359L86.089,24.359z M83.164,27.2V11.418h2.861   c0.057,0.015,0.113,0.022,0.172,0.022c0.055,0,0.113,0,0.17,0c0.043,0,0.088,0,0.139,0c0.049,0,0.096,0,0.139,0   c0.611,0,1.221,0.028,1.826,0.086c0.605,0.056,1.191,0.228,1.76,0.512c0.654,0.328,1.19,0.816,1.602,1.463   c0.414,0.647,0.621,1.342,0.621,2.082c0,0.611-0.145,1.196-0.428,1.75c-0.283,0.557-0.719,0.976-1.303,1.26   c0.869,0.272,1.533,0.751,1.996,1.441c0.463,0.691,0.694,1.485,0.694,2.381c0,0.768-0.167,1.475-0.501,2.114   c-0.336,0.64-0.809,1.188-1.422,1.646c-0.498,0.369-1.045,0.621-1.643,0.757s-1.203,0.218-1.816,0.245   c-0.155,0.014-0.309,0.022-0.457,0.022c-0.15,0-0.305,0-0.46,0H83.164L83.164,27.2z"/>
	<path fill-rule="evenodd" clip-rule="evenodd" fill="#4BB2E5" d="M175.006,41.875c0,0.654,0.184,1.182,0.553,1.576   c0.365,0.395,0.861,0.594,1.479,0.594c0.625,0,1.102-0.191,1.439-0.58c0.334-0.384,0.502-0.914,0.502-1.59   c0-0.557-0.184-1.029-0.543-1.413c-0.357-0.388-0.824-0.581-1.398-0.581c-0.6,0-1.088,0.186-1.467,0.559   C175.193,40.811,175.006,41.291,175.006,41.875L175.006,41.875z M172.4,51.992l1.646-2.031c0.912,0.838,1.926,1.26,3.047,1.26   c0.753,0,1.371-0.113,1.859-0.338c0.486-0.225,0.73-0.535,0.73-0.926c0-0.666-0.539-1-1.617-1c-0.295,0-0.729,0.035-1.305,0.107   c-0.578,0.07-1.012,0.105-1.309,0.105c-1.793,0-2.689-0.645-2.689-1.932c0-0.367,0.15-0.729,0.445-1.086   c0.299-0.355,0.645-0.615,1.039-0.781c-1.273-0.824-1.91-1.99-1.91-3.5c0-1.191,0.438-2.178,1.316-2.957s1.957-1.168,3.238-1.168   c1.004,0,1.842,0.189,2.52,0.563l1.023-1.182l1.809,1.625L181,39.658c0.43,0.65,0.646,1.419,0.646,2.305   c0,1.268-0.389,2.279-1.163,3.035c-0.78,0.76-1.758,1.141-2.942,1.141c-0.189,0-0.439-0.018-0.752-0.051l-0.43-0.055   c-0.047,0-0.232,0.072-0.553,0.223c-0.32,0.152-0.479,0.306-0.479,0.465c0,0.281,0.237,0.422,0.718,0.422   c0.219,0,0.58-0.055,1.086-0.16c0.51-0.109,0.943-0.162,1.305-0.162c2.539,0,3.809,1.023,3.809,3.063   c0,1.127-0.508,2.014-1.521,2.656c-1.02,0.645-2.242,0.966-3.676,0.966C175.334,53.505,173.785,53,172.4,51.992L172.4,51.992z    M166.145,49.127V37.298h2.582v1.067h0.045c0.313-0.482,0.668-0.844,1.068-1.078c0.398-0.234,0.888-0.352,1.473-0.352l0.213-0.023   v2.756c-0.1,0.014-0.199,0.025-0.3,0.033c-0.099,0.006-0.198,0.023-0.298,0.052c-0.2,0.042-0.398,0.104-0.598,0.183   c-0.199,0.076-0.377,0.181-0.533,0.309c-0.357,0.285-0.582,0.615-0.674,0.992c-0.094,0.379-0.139,0.779-0.139,1.207   c0,0.059,0,0.111,0,0.162c0,0.049,0,0.102,0,0.158v6.363H166.145L166.145,49.127z M158.221,39.689   c-0.084,0.016-0.17,0.023-0.256,0.033c-0.084,0.006-0.17,0.018-0.254,0.03c-0.357,0.071-0.705,0.2-1.047,0.386   c-0.342,0.184-0.635,0.404-0.877,0.662c-0.326,0.326-0.572,0.699-0.736,1.12s-0.244,0.864-0.244,1.335   c0,0.953,0.326,1.775,0.98,2.467s1.467,1.033,2.434,1.033c1.012,0,1.844-0.334,2.498-1.006c0.656-0.67,0.984-1.504,0.984-2.506   c0-0.971-0.336-1.809-1.004-2.506C160.029,40.039,159.205,39.689,158.221,39.689L158.221,39.689z M158.35,36.912   c1.736,0.016,3.203,0.645,4.4,1.891c1.195,1.246,1.793,2.73,1.793,4.453c0,1.75-0.619,3.23-1.859,4.441   c-1.236,1.209-2.725,1.814-4.463,1.814c-1.707,0-3.176-0.611-4.408-1.836c-1.23-1.225-1.848-2.697-1.848-4.42   c0-1.779,0.623-3.279,1.867-4.496c1.248-1.217,2.754-1.824,4.518-1.824V36.912L158.35,36.912z M146.883,49.127v-2.84h2.84v2.84   H146.883L146.883,49.127z M135.287,41.953h6.514c-0.229-0.697-0.641-1.246-1.24-1.645c-0.596-0.398-1.26-0.598-1.984-0.598   c-0.027,0-0.057,0-0.084,0c-0.029,0-0.059,0-0.088,0c-0.684,0.042-1.322,0.264-1.92,0.664   C135.885,40.779,135.486,41.305,135.287,41.953L135.287,41.953z M144.514,44.471h-9.184c0.213,0.697,0.609,1.254,1.186,1.668   c0.578,0.412,1.221,0.617,1.934,0.617c0.541,0,1.048-0.09,1.525-0.275c0.479-0.186,0.85-0.436,1.121-0.748l3.139-0.021   c-0.355,1.068-1.078,1.969-2.168,2.701c-1.088,0.734-2.258,1.1-3.512,1.1c-1.723,0-3.191-0.602-4.41-1.803   c-1.217-1.205-1.825-2.666-1.825-4.389c0-1.752,0.606-3.254,1.815-4.506c1.211-1.253,2.697-1.879,4.463-1.879   c1.693,0,3.127,0.619,4.303,1.861s1.762,2.686,1.762,4.334c0,0.186-0.01,0.367-0.031,0.543c-0.021,0.18-0.047,0.35-0.074,0.521   c-0.016,0.057-0.025,0.105-0.033,0.15C144.516,44.387,144.514,44.43,144.514,44.471L144.514,44.471z M128.027,43.191   c0-0.967-0.348-1.791-1.047-2.467c-0.696-0.676-1.529-1.014-2.498-1.014c-0.912,0-1.707,0.346-2.391,1.035   s-1.025,1.492-1.025,2.402c0,0.982,0.326,1.83,0.98,2.541c0.656,0.713,1.482,1.066,2.479,1.066c0.982,0,1.811-0.348,2.488-1.045   c0.677-0.697,1.014-1.529,1.014-2.5V43.191L128.027,43.191z M130.676,33.348v15.779h-2.604v-1.6h-0.044   c-0.398,0.639-0.943,1.127-1.635,1.461c-0.689,0.334-1.412,0.51-2.166,0.523c-0.014,0-0.031,0-0.053,0s-0.047,0-0.076,0   c-0.867,0-1.664-0.178-2.391-0.535c-0.726-0.354-1.352-0.832-1.879-1.43c-0.498-0.582-0.889-1.244-1.176-1.984   c-0.283-0.742-0.426-1.503-0.426-2.285c0-0.799,0.135-1.57,0.404-2.316c0.271-0.748,0.67-1.42,1.197-2.018   c0.498-0.557,1.104-1.016,1.814-1.379c0.713-0.363,1.451-0.565,2.221-0.607c0.057-0.016,0.109-0.021,0.16-0.021s0.104,0,0.16,0   c0.029,0,0.057,0,0.086,0c0.027,0,0.057,0,0.086,0c0.654,0.027,1.291,0.176,1.91,0.447s1.143,0.654,1.57,1.152v-5.188H130.676   L130.676,33.348z M113.613,35.932v-2.584h2.84v2.584H113.613L113.613,35.932z M113.613,49.127V37.298h2.84v11.829H113.613   L113.613,49.127z M108.488,37.298h2.842v11.829h-2.605v-1.26h-0.043c-0.299,0.584-0.713,1.004-1.238,1.26   c-0.527,0.258-1.119,0.385-1.773,0.385c-0.697,0-1.369-0.131-2.018-0.395s-1.221-0.674-1.719-1.229   c-0.527-0.57-0.848-1.17-0.962-1.803c-0.114-0.635-0.171-1.328-0.171-2.084v-6.704h2.84v5.808c0,0.186,0.006,0.375,0.012,0.566   c0.006,0.193,0.018,0.388,0.033,0.588c0.027,0.228,0.066,0.451,0.117,0.672c0.049,0.221,0.117,0.424,0.201,0.609   c0.199,0.383,0.477,0.682,0.834,0.896c0.355,0.213,0.754,0.318,1.195,0.318c0.953,0,1.588-0.316,1.9-0.949s0.49-1.326,0.533-2.082   c0.014-0.1,0.021-0.199,0.021-0.299s0-0.199,0-0.299V37.298L108.488,37.298z M98.389,38.002h-3.502   c-0.441-0.605-1.01-1.092-1.708-1.466s-1.415-0.585-2.157-0.626c-0.041,0-0.09,0-0.139,0s-0.098,0-0.139,0   c-0.67,0-1.32,0.121-1.953,0.357c-0.633,0.24-1.199,0.58-1.697,1.03c-0.457,0.413-0.842,0.907-1.154,1.491   c-0.313,0.583-0.52,1.186-0.619,1.813c-0.014,0.113-0.025,0.223-0.031,0.33c-0.008,0.105-0.012,0.217-0.012,0.327   c0,0.099,0.004,0.204,0.012,0.31c0.006,0.107,0.018,0.211,0.031,0.311c0.07,0.568,0.238,1.115,0.502,1.65s0.588,0.996,0.971,1.396   c0.541,0.568,1.168,1.002,1.881,1.309c0.711,0.305,1.443,0.459,2.199,0.459c0.041,0,0.08,0,0.117,0c0.035,0,0.068,0,0.096,0   c0.896-0.043,1.75-0.324,2.563-0.844c0.811-0.52,1.424-1.186,1.836-1.996h-6.598v-2.776h10.291v0.341   c0,2.32-0.834,4.25-2.508,5.788c-1.674,1.536-3.635,2.306-5.885,2.306c-2.275,0-4.252-0.779-5.924-2.338   c-1.673-1.561-2.51-3.5-2.51-5.82c0-2.334,0.834-4.297,2.498-5.893c1.668-1.594,3.633-2.393,5.895-2.393c0.029,0,0.062,0,0.096,0   c0.035,0,0.068,0,0.096,0c1.566,0.045,3.055,0.51,4.463,1.395c1.41,0.889,2.406,2.073,2.99,3.561V38.002L98.389,38.002z"/>
</g>
</svg>