<?xml version="1.0" encoding="UTF-8"?>
<!-- Generator: Adobe Illustrator 14.0.0, SVG Export Plug-In . SVG Version: 6.00 Build 43363)  -->
<!DOCTYPE svg PUBLIC "-//W3C//DTD SVG 1.1//EN" "http://www.w3.org/Graphics/SVG/1.1/DTD/svg11.dtd">
<svg version="1.1" id="Layer_1" xmlns="http://www.w3.org/2000/svg" xmlns:xlink="http://www.w3.org/1999/xlink" x="0px" y="0px" width="67.945px" height="42.219px" viewBox="0 0 67.945 42.219" enable-background="new 0 0 67.945 42.219" xml:space="preserve">
<g>
	<path fill-rule="evenodd" clip-rule="evenodd" fill="#FFFFFF" d="M10.961,32.362v-7.482h8.584c3.77,0,5.51,1.451,5.51,3.654v0.115   c0,2.379-1.974,3.713-5.395,3.713H10.961L10.961,32.362z M10.961,16.992V9.859h7.308c3.363,0,5.103,1.275,5.103,3.479v0.116   c0,2.378-1.913,3.537-5.335,3.537H10.961L10.961,16.992z M0,41.409h20.937c9.685,0,15.368-4.234,15.368-11.193V30.1   c0-5.51-3.132-8.293-8.062-9.917c3.595-1.566,6.264-4.35,6.264-9.048V11.02c0-2.784-0.985-4.93-2.61-6.554   c-2.377-2.378-5.974-3.653-11.077-3.653H0V41.409L0,41.409z"/>
	<path fill-rule="evenodd" clip-rule="evenodd" fill="#FFFFFF" d="M50.314,42.219c7.365,0,13.34-2.725,17.631-6.262V17.688H49.271   v8.236h8.002v4.928c-1.682,1.104-3.769,1.684-6.495,1.684c-6.437,0-11.019-4.697-11.019-11.25v-0.117   c0-6.205,4.523-11.135,10.382-11.135c4.001,0,6.9,1.393,9.8,3.828l6.612-7.945C62.262,2.204,57.217,0,50.083,0   C43.84,0,38.412,2.285,34.525,6.03c0.793,1.502,1.172,3.183,1.172,4.989v0.115c0,3.94-1.713,6.891-4.66,8.879   c4.022,1.92,6.458,5.016,6.458,10.086v0.115c0,2.127-0.487,4.184-1.601,6.008c-0.178,0.287-0.365,0.563-0.563,0.828   C39.206,40.325,44.412,42.219,50.314,42.219L50.314,42.219z"/>
</g>
</svg>